<?xml version="1.0" encoding="UTF-8" standalone="no"?>
<!-- Created with Inkscape (http://www.inkscape.org/) -->

<svg
   xmlns:dc="http://purl.org/dc/elements/1.1/"
   xmlns:cc="http://creativecommons.org/ns#"
   xmlns:rdf="http://www.w3.org/1999/02/22-rdf-syntax-ns#"
   xmlns:svg="http://www.w3.org/2000/svg"
   xmlns="http://www.w3.org/2000/svg"
   xmlns:sodipodi="http://sodipodi.sourceforge.net/DTD/sodipodi-0.dtd"
   xmlns:inkscape="http://www.inkscape.org/namespaces/inkscape"
   width="297mm"
   height="210mm"
   viewBox="0 0 297 210"
   version="1.1"
   id="svg1992"
   inkscape:version="0.92.5 (2060ec1f9f, 2020-04-08)"
   sodipodi:docname="Wargame_CardBox_1_part1.svg">
  <defs
     id="defs1986" />
  <sodipodi:namedview
     id="base"
     pagecolor="#ffffff"
     bordercolor="#666666"
     borderopacity="1.0"
     inkscape:pageopacity="0.0"
     inkscape:pageshadow="2"
     inkscape:zoom="0.7"
     inkscape:cx="832.06655"
     inkscape:cy="526.20642"
     inkscape:document-units="mm"
     inkscape:current-layer="layer1"
     showgrid="false"
     inkscape:window-width="1864"
     inkscape:window-height="1016"
     inkscape:window-x="56"
     inkscape:window-y="27"
     inkscape:window-maximized="1" />
  <metadata
     id="metadata1989">
    <rdf:RDF>
      <cc:Work
         rdf:about="">
        <dc:format>image/svg+xml</dc:format>
        <dc:type
           rdf:resource="http://purl.org/dc/dcmitype/StillImage" />
        <dc:title></dc:title>
      </cc:Work>
    </rdf:RDF>
  </metadata>
  <g
     inkscape:label="Layer 1"
     inkscape:groupmode="layer"
     id="layer1"
     transform="translate(0,-87)">
    <text
       id="text1332"
       style="font-style:normal;font-weight:normal;font-size:4px;font-family:sans-serif;text-anchor:middle;fill:#aad400;stroke:none;stroke-linecap:round;stroke-linejoin:round"
       font-size="4px"
       alignment-baseline="hanging"
       x="88.574402"
       y="205.83151">Lid</text>
    <path
       id="path1334"
       d="m 2.9744051,241.33139 h 9.5999989 c 0.055,0 0.1,-0.045 0.1,-0.1 v -3.9 c 0,-0.1 -0.1,0 0,0 h 7.8 c 0.1,0 0,-0.1 0,0 v 3.9 c 0,0.055 0.045,0.1 0.1,0.1 h 8 c 0.055,0 0.1,-0.045 0.1,-0.1 v -3.9 c 0,-0.1 -0.1,0 0,0 h 7.8 c 0.1,0 0,-0.1 0,0 v 3.9 c 0,0.055 0.045,0.1 0.1,0.1 h 8 c 0.055,0 0.1,-0.045 0.1,-0.1 v -3.9 c 0,-0.1 -0.1,0 0,0 h 7.8 c 0.1,0 0,-0.1 0,0 v 3.9 c 0,0.055 0.045,0.1 0.1,0.1 h 8 c 0.055,0 0.1,-0.045 0.1,-0.1 v -3.9 c 0,-0.1 -0.1,0 0,0 h 7.8 c 0.1,0 0,-0.1 0,0 v 3.9 c 0,0.055 0.045,0.1 0.1,0.1 h 8 c 0.055,0 0.1,-0.045 0.1,-0.1 v -3.9 c 0,-0.1 -0.1,0 0,0 h 7.8 c 0.1,0 0,-0.1 0,0 v 3.9 c 0,0.055 0.045,0.1 0.1,0.1 h 8 c 0.055,0 0.1,-0.045 0.1,-0.1 v -3.9 c 0,-0.1 -0.1,0 0,0 h 7.799986 c 0.1,0 0,-0.1 0,0 v 3.9 c 0,0.055 0.045,0.1 0.1,0.1 h 8 c 0.055,0 0.1,-0.045 0.1,-0.1 v -3.9 c 0,-0.1 -0.1,0 0,0 h 7.8 c 0.1,0 0,-0.1 0,0 v 3.9 c 0,0.055 0.045,0.1 0.1,0.1 h 8 c 0.055,0 0.1,-0.045 0.1,-0.1 v -3.9 c 0,-0.1 -0.1,0 0,0 h 7.8 c 0.1,0 0,-0.1 0,0 v 3.9 c 0,0.055 0.045,0.1 0.1,0.1 h 8 c 0.055,0 0.1,-0.045 0.1,-0.1 v -3.9 c 0,-0.1 -0.1,0 0,0 h 7.8 c 0.1,0 0,-0.1 0,0 v 3.9 c 0,0.055 0.045,0.1 0.1,0.1 h 8 c 0.055,0 0.1,-0.045 0.1,-0.1 v -3.9 c 0,-0.1 -0.1,0 0,0 h 7.8 c 0.1,0 0,-0.1 0,0 v 3.9 c 0,0.055 0.045,0.1 0.1,0.1 h 9.6 c 0.055,0 0.1,-0.045 0.1,-0.1 v -4 -63 c 0,-0.055 -0.045,-0.1 -0.1,-0.1 H 2.9744051 c -0.055,0 -0.1,0.045 -0.1,0.1 v 63 4 c 0,0.055 0.045,0.1 0.1,0.1"
       inkscape:connector-curvature="0"
       style="fill:none;stroke:#ff0000;stroke-width:0.2;stroke-linecap:round;stroke-linejoin:round" />
    <text
       id="text1366"
       style="font-style:normal;font-weight:normal;font-size:4px;font-family:sans-serif;text-anchor:middle;fill:#aad400;stroke:none;stroke-linecap:round;stroke-linejoin:round"
       font-size="4px"
       alignment-baseline="hanging"
       x="92.974403"
       y="132.13152">Back</text>
    <path
       id="path1368"
       d="m 6.9744051,168.13139 h 9.9999989 c 0.055,0 0.1,-0.045 0.1,-0.1 v -3.9 c 0,-0.1 -0.1,0 0,0 h 7.8 c 0.1,0 0,-0.1 0,0 v 3.9 c 0,0.055 0.045,0.1 0.1,0.1 h 8 c 0.055,0 0.1,-0.045 0.1,-0.1 v -3.9 c 0,-0.1 -0.1,0 0,0 h 7.8 c 0.1,0 0,-0.1 0,0 v 3.9 c 0,0.055 0.045,0.1 0.1,0.1 h 8 c 0.055,0 0.1,-0.045 0.1,-0.1 v -3.9 c 0,-0.1 -0.1,0 0,0 h 7.8 c 0.1,0 0,-0.1 0,0 v 3.9 c 0,0.055 0.045,0.1 0.1,0.1 h 8 c 0.055,0 0.1,-0.045 0.1,-0.1 v -3.9 c 0,-0.1 -0.1,0 0,0 h 7.8 c 0.1,0 0,-0.1 0,0 v 3.9 c 0,0.055 0.045,0.1 0.1,0.1 h 8 c 0.055,0 0.1,-0.045 0.1,-0.1 v -3.9 c 0,-0.1 -0.1,0 0,0 h 7.8 c 0.1,0 0,-0.1 0,0 v 3.9 c 0,0.055 0.045,0.1 0.1,0.1 h 8 c 0.055,0 0.1,-0.045 0.1,-0.1 v -3.9 c 0,-0.1 -0.1,0 0,0 h 7.799986 c 0.1,0 0,-0.1 0,0 v 3.9 c 0,0.055 0.045,0.1 0.1,0.1 h 8 c 0.055,0 0.1,-0.045 0.1,-0.1 v -3.9 c 0,-0.1 -0.1,0 0,0 h 7.8 c 0.1,0 0,-0.1 0,0 v 3.9 c 0,0.055 0.045,0.1 0.1,0.1 h 8 c 0.055,0 0.1,-0.045 0.1,-0.1 v -3.9 c 0,-0.1 -0.1,0 0,0 h 7.8 c 0.1,0 0,-0.1 0,0 v 3.9 c 0,0.055 0.045,0.1 0.1,0.1 h 8 c 0.055,0 0.1,-0.045 0.1,-0.1 v -3.9 c 0,-0.1 -0.1,0 0,0 h 7.8 c 0.1,0 0,-0.1 0,0 v 3.9 c 0,0.055 0.045,0.1 0.1,0.1 h 8 c 0.055,0 0.1,-0.045 0.1,-0.1 v -3.9 c 0,-0.1 -0.1,0 0,0 h 7.8 c 0.1,0 0,-0.1 0,0 v 3.9 c 0,0.055 0.045,0.1 0.1,0.1 h 10 4 c 0.055,0 0.1,-0.045 0.1,-0.1 v -4 -10 c 0,-0.055 -0.045,-0.1 -0.1,-0.1 h -3.9 c -0.1,0 0,0.1 0,0 v -7.8 c 0,-0.1 -0.1,0 0,0 h 3.9 c 0.055,0 0.1,-0.045 0.1,-0.1 v -8 c 0,-0.055 -0.045,-0.1 -0.1,-0.1 h -3.9 c -0.1,0 0,0.1 0,0 v -7.8 c 0,-0.1 -0.1,0 0,0 h 3.9 c 0.055,0 0.1,-0.045 0.1,-0.1 v -8 c 0,-0.055 -0.045,-0.1 -0.1,-0.1 h -3.9 c -0.1,0 0,0.1 0,0 v -7.8 c 0,-0.1 -0.1,0 0,0 h 3.9 c 0.055,0 0.1,-0.045 0.1,-0.1 v -10 -4 c 0,-0.055 -0.045,-0.1 -0.1,-0.1 h -4 -171.9999849 -4 c -0.055,0 -0.1,0.045 -0.1,0.1 v 4 10 c 0,0.055 0.045,0.1 0.1,0.1 h 3.9 c 0.1,0 0,-0.1 0,0 v 7.8 c 0,0.1 0.1,0 0,0 h -3.9 c -0.055,0 -0.1,0.045 -0.1,0.1 v 8 c 0,0.055 0.045,0.1 0.1,0.1 h 3.9 c 0.1,0 0,-0.1 0,0 v 7.8 c 0,0.1 0.1,0 0,0 h -3.9 c -0.055,0 -0.1,0.045 -0.1,0.1 v 8 c 0,0.055 0.045,0.1 0.1,0.1 h 3.9 c 0.1,0 0,-0.1 0,0 v 7.8 c 0,0.1 0.1,0 0,0 h -3.9 c -0.055,0 -0.1,0.045 -0.1,0.1 v 10 4 c 0,0.055 0.045,0.1 0.1,0.1 h 4"
       inkscape:connector-curvature="0"
       style="fill:none;stroke:#ff0000;stroke-width:0.2;stroke-linecap:round;stroke-linejoin:round" />
    <path
       id="path1390"
       d="m 6.9744051,93.931426 h 9.4999989 c 0.1,0 0,-0.1 0,0 v 3.899979 c 0,0.055 0.045,0.1 0.1,0.1 h 8 c 0.055,0 0.1,-0.045 0.1,-0.1 v -3.899979 c 0,-0.1 -0.1,0 0,0 h 7.8 c 0.1,0 0,-0.1 0,0 v 3.899979 c 0,0.055 0.045,0.1 0.1,0.1 h 8 c 0.055,0 0.1,-0.045 0.1,-0.1 v -3.899979 c 0,-0.1 -0.1,0 0,0 h 7.8 c 0.1,0 0,-0.1 0,0 v 3.899979 c 0,0.055 0.045,0.1 0.1,0.1 h 8 c 0.055,0 0.1,-0.045 0.1,-0.1 v -3.899979 c 0,-0.1 -0.1,0 0,0 h 7.8 c 0.1,0 0,-0.1 0,0 v 3.899979 c 0,0.055 0.045,0.1 0.1,0.1 h 8 c 0.055,0 0.1,-0.045 0.1,-0.1 v -3.899979 c 0,-0.1 -0.1,0 0,0 h 7.8 c 0.1,0 0,-0.1 0,0 v 3.899979 c 0,0.055 0.045,0.1 0.1,0.1 h 8 c 0.055,0 0.1,-0.045 0.1,-0.1 v -3.899979 c 0,-0.1 -0.1,0 0,0 h 7.8 c 0.1,0 0,-0.1 0,0 v 3.899979 c 0,0.055 0.045,0.1 0.1,0.1 h 7.999986 c 0.055,0 0.1,-0.045 0.1,-0.1 v -3.899979 c 0,-0.1 -0.1,0 0,0 h 7.8 c 0.1,0 0,-0.1 0,0 v 3.899979 c 0,0.055 0.045,0.1 0.1,0.1 h 8 c 0.055,0 0.1,-0.045 0.1,-0.1 v -3.899979 c 0,-0.1 -0.1,0 0,0 h 7.8 c 0.1,0 0,-0.1 0,0 v 3.899979 c 0,0.055 0.045,0.1 0.1,0.1 h 8 c 0.055,0 0.1,-0.045 0.1,-0.1 v -3.899979 c 0,-0.1 -0.1,0 0,0 h 7.8 c 0.1,0 0,-0.1 0,0 v 3.899979 c 0,0.055 0.045,0.1 0.1,0.1 h 8 c 0.055,0 0.1,-0.045 0.1,-0.1 v -3.899979 c 0,-0.1 -0.1,0 0,0 h 7.8 c 0.1,0 0,-0.1 0,0 v 3.899979 c 0,0.055 0.045,0.1 0.1,0.1 h 8 c 0.055,0 0.1,-0.045 0.1,-0.1 v -3.899979 c 0,-0.1 -0.1,0 0,0 h 9.5 4 c 0.055,0 0.1,-0.045 0.1,-0.1 v -4 c 0,-0.055 -0.045,-0.1 -0.1,-0.1 h -4 -171.1999849 -4 c -0.055,0 -0.1,0.045 -0.1,0.1 v 4 c 0,0.055 0.045,0.1 0.1,0.1 h 4"
       inkscape:connector-curvature="0"
       style="fill:none;stroke:#ff0000;stroke-width:0.2;stroke-linecap:round;stroke-linejoin:round" />
    <text
       id="text1408"
       style="font-style:normal;font-weight:normal;font-size:4px;font-family:sans-serif;text-anchor:middle;fill:#aad400;stroke:none;stroke-linecap:round;stroke-linejoin:round"
       font-size="4px"
       alignment-baseline="hanging"
       x="237.84109"
       y="186.44115">Inner Side Right</text>
    <path
       sodipodi:nodetypes="csccssssssssc"
       style="fill:none;stroke:#ff0000;stroke-width:0.2;stroke-linecap:round;stroke-linejoin:round"
       inkscape:connector-curvature="0"
       id="path1410"
       d="m 202.18331,218.70889 h 21.5 c 0.055,0 0.1,-0.045 0.1,-0.1 h 19.8 c 0,0.055 0.045,0.1 0.1,0.1 h 21.5 c 0.055,0 0.1,-0.045 0.1,-0.1 v -56 c 0,-0.055 -0.045,-0.1 -0.1,-0.1 h -63 c -0.055,0 -0.1,0.045 -0.1,0.1 v 56 c 0,0.055 0.045,0.1 0.1,0.1" />
    <g
       transform="rotate(90,97.739287,184.56607)"
       id="p-10"
       style="fill:none;stroke:#ff0000;stroke-linecap:round;stroke-linejoin:round">
      <text
         alignment-baseline="hanging"
         font-size="4px"
         style="font-style:normal;font-weight:normal;font-size:4px;font-family:sans-serif;text-anchor:middle;fill:#88aa00;stroke:none"
         id="text1413"
         x="35.249992"
         y="97.801178">Lip Left</text>
      <path
         style="stroke:#ff0000;stroke-width:0.2"
         inkscape:connector-curvature="0"
         d="M 3.7499996,94.045835 H 66.749996 c 0.055,0 0.1,-0.045 0.1,-0.1 v -4 c 0,-0.055 -0.045,-0.1 -0.1,-0.1 h -11.4 c -0.1,0 0,0.1 0,0 v -3.9 c 0,-0.055 -0.045,-0.1 -0.1,-0.1 h -8 c -0.055,0 -0.1,0.045 -0.1,0.1 v 3.9 c 0,0.1 0.1,0 0,0 h -7.8 c -0.1,0 0,0.1 0,0 v -3.9 c 0,-0.055 -0.045,-0.1 -0.1,-0.1 h -8 c -0.055,0 -0.1,0.045 -0.1,0.1 v 3.9 c 0,0.1 0.1,0 0,0 h -7.8 c -0.1,0 0,0.1 0,0 v -3.9 c 0,-0.055 -0.045,-0.1 -0.1,-0.1 h -8 c -0.055,0 -0.1,0.045 -0.1,0.1 v 3.9 c 0,0.1 0.1,0 0,0 H 3.7499996 c -0.055,0 -0.1,0.045 -0.1,0.1 v 4 c 0,0.055 0.045,0.1 0.1,0.1"
         id="path1415" />
    </g>
    <g
       transform="rotate(-90,144.94799,98.192579)"
       id="p-7"
       style="fill:none;stroke-linecap:round;stroke-linejoin:round">
      <text
         alignment-baseline="hanging"
         font-size="4px"
         style="font-style:normal;font-weight:normal;font-size:4px;font-family:sans-serif;text-anchor:middle;fill:#88aa00"
         transform="translate(118.8,183.8)"
         id="text1398">Outer Side Right</text>
      <path
         style="stroke:#ff0000;stroke-width:0.2"
         inkscape:connector-curvature="0"
         d="m 87.3,219.8 h 11.5 c 0.055,0 0.1,-0.045 0.1,-0.1 v -3.9 c 0,-0.1 -0.1,0 0,0 h 7.8 c 0.1,0 0,-0.1 0,0 v 3.9 c 0,0.055 0.045,0.1 0.1,0.1 h 8 c 0.055,0 0.1,-0.045 0.1,-0.1 v -3.9 c 0,-0.1 -0.1,0 0,0 h 7.8 c 0.1,0 0,-0.1 0,0 v 3.9 c 0,0.055 0.045,0.1 0.1,0.1 h 8 c 0.055,0 0.1,-0.045 0.1,-0.1 v -3.9 c 0,-0.1 -0.1,0 0,0 h 7.8 c 0.1,0 0,-0.1 0,0 v 3.9 c 0,0.055 0.045,0.1 0.1,0.1 h 11.5 c 0.055,0 0.1,-0.045 0.1,-0.1 v -4 -9.9 c 0,-0.1 -0.1,0 0,0 h 3.9 c 0.055,0 0.1,-0.045 0.1,-0.1 v -8 c 0,-0.055 -0.045,-0.1 -0.1,-0.1 h -3.9 c -0.1,0 0,0.1 0,0 v -7.8 c 0,-0.1 -0.1,0 0,0 h 3.9 c 0.055,0 0.1,-0.045 0.1,-0.1 v -8 c 0,-0.055 -0.045,-0.1 -0.1,-0.1 h -3.9 c -0.1,0 0,0.1 0,0 v -7.8 c 0,-0.1 -0.1,0 0,0 h 3.9 c 0.055,0 0.1,-0.045 0.1,-0.1 v -8 c 0,-0.055 -0.045,-0.1 -0.1,-0.1 h -3.9 c -0.1,0 0,0.1 0,0 v -9.9 -4 c 0,-0.055 -0.045,-0.1 -0.1,-0.1 h -11.5 c -0.055,0 -0.1,0.045 -0.1,0.1 v 3.9 c 0,0.1 0.1,0 0,0 h -7.8 c -0.1,0 0,0.1 0,0 v -3.9 c 0,-0.055 -0.045,-0.1 -0.1,-0.1 h -8 c -0.055,0 -0.1,0.045 -0.1,0.1 v 3.9 c 0,0.1 0.1,0 0,0 h -7.8 c -0.1,0 0,0.1 0,0 v -3.9 c 0,-0.055 -0.045,-0.1 -0.1,-0.1 h -8 c -0.055,0 -0.1,0.045 -0.1,0.1 v 3.9 c 0,0.1 0.1,0 0,0 h -7.8 c -0.1,0 0,0.1 0,0 v -3.9 c 0,-0.055 -0.045,-0.1 -0.1,-0.1 H 87.3 c -0.055,0 -0.1,0.045 -0.1,0.1 v 4 9.9 c 0,0.1 0.1,0 0,0 h -3.9 c -0.055,0 -0.1,0.045 -0.1,0.1 v 8 c 0,0.055 0.045,0.1 0.1,0.1 h 3.9 c 0.1,0 0,-0.1 0,0 v 7.8 c 0,0.1 0.1,0 0,0 h -3.9 c -0.055,0 -0.1,0.045 -0.1,0.1 v 8 c 0,0.055 0.045,0.1 0.1,0.1 h 3.9 c 0.1,0 0,-0.1 0,0 v 7.8 c 0,0.1 0.1,0 0,0 h -3.9 c -0.055,0 -0.1,0.045 -0.1,0.1 v 8 c 0,0.055 0.045,0.1 0.1,0.1 h 3.9 c 0.1,0 0,-0.1 0,0 v 9.9 4 c 0,0.055 0.045,0.1 0.1,0.1"
         id="path1400" />
    </g>
  </g>
</svg>
