<?xml version="1.0" encoding="UTF-8" standalone="no"?>
<svg
   xmlns:dc="http://purl.org/dc/elements/1.1/"
   xmlns:cc="http://creativecommons.org/ns#"
   xmlns:rdf="http://www.w3.org/1999/02/22-rdf-syntax-ns#"
   xmlns:svg="http://www.w3.org/2000/svg"
   xmlns="http://www.w3.org/2000/svg"
   xmlns:sodipodi="http://sodipodi.sourceforge.net/DTD/sodipodi-0.dtd"
   xmlns:inkscape="http://www.inkscape.org/namespaces/inkscape"
   height="395.60mm"
   viewBox="0.0 0.0 382.40 395.60"
   width="382.40mm"
   version="1.1"
   id="svg1433"
   sodipodi:docname="Wargame_CardBox_3.svg"
   inkscape:version="0.92.5 (2060ec1f9f, 2020-04-08)">
  <defs
     id="defs1437" />
  <sodipodi:namedview
     pagecolor="#ffffff"
     bordercolor="#666666"
     borderopacity="1"
     objecttolerance="10"
     gridtolerance="10"
     guidetolerance="10"
     inkscape:pageopacity="0"
     inkscape:pageshadow="2"
     inkscape:window-width="1864"
     inkscape:window-height="1016"
     id="namedview1435"
     showgrid="false"
     inkscape:zoom="0.63136163"
     inkscape:cx="737.9166"
     inkscape:cy="1076.5469"
     inkscape:window-x="56"
     inkscape:window-y="27"
     inkscape:window-maximized="1"
     inkscape:current-layer="svg1433" />
  <!--
CardBox - Box for storage of playing cards



#### Building instructions

Place inner walls on floor first (if any). Then add the outer walls. Glue the two walls without finger joins to the inside of the side walls. Make sure there is no squeeze out on top, as this is going to form the rail for the lid.

Add the top of the rails to the sides and the grip rail to the lid (still missing in the picture above):

![Details](static/samples/CardBox-detail.jpg)



Created with Boxes.py (https://festi.info/boxes.py)
Creation date: 2021-09-11 14:59:02
Command line (remove spaces between dashes): boxes CardBox - -FingerJoint_angle=90.0 - -FingerJoint_style=rectangular - -FingerJoint_surroundingspaces=2.0 - -FingerJoint_edge_width=1.0 - -FingerJoint_finger=2.0 - -FingerJoint_play=0.0 - -FingerJoint_space=2.0 - -FingerJoint_width=1.0 - -h=56 - -cardwidth=52 - -cardheight=63 - -num=3 - -thickness=4 - -format=svg - -tabs=0.0 - -debug=0 - -labels=0 - -labels=1 - -reference=100 - -burn=0.1
Url: http://www.festi.info/CardBox?FingerJoint_angle=90.0&FingerJoint_style=rectangular&FingerJoint_surroundingspaces=2.0&FingerJoint_edge_width=1.0&FingerJoint_finger=2.0&FingerJoint_play=0.0&FingerJoint_space=2.0&FingerJoint_width=1.0&h=56&cardwidth=52&cardheight=63&num=3&thickness=4&format=svg&tabs=0.0&debug=0&labels=0&labels=1&reference=100&burn=0.1&render=1
SettingsUrl: http://www.festi.info/CardBox?FingerJoint_angle=90.0&FingerJoint_style=rectangular&FingerJoint_surroundingspaces=2.0&FingerJoint_edge_width=1.0&FingerJoint_finger=2.0&FingerJoint_play=0.0&FingerJoint_space=2.0&FingerJoint_width=1.0&h=56&cardwidth=52&cardheight=63&num=3&thickness=4&format=svg&tabs=0.0&debug=0&labels=0&labels=1&reference=100&burn=0.1
-->
  <title
     id="title1321">CardBox</title>
  <metadata
     id="metadata1323">
    <rdf:RDF>
      <cc:Work>
        <dc:title>Box - CardBox</dc:title>
        <dc:date>2021-09-11 14:59:02</dc:date>
        <dc:source>http://www.festi.info/CardBox?FingerJoint_angle=90.0&amp;FingerJoint_style=rectangular&amp;FingerJoint_surroundingspaces=2.0&amp;FingerJoint_edge_width=1.0&amp;FingerJoint_finger=2.0&amp;FingerJoint_play=0.0&amp;FingerJoint_space=2.0&amp;FingerJoint_width=1.0&amp;h=56&amp;cardwidth=52&amp;cardheight=63&amp;num=3&amp;thickness=4&amp;format=svg&amp;tabs=0.0&amp;debug=0&amp;labels=0&amp;labels=1&amp;reference=100&amp;burn=0.1&amp;render=1</dc:source>
        <dc:description>Box for storage of playing cards


#### Building instructions

Place inner walls on floor first (if any). Then add the outer walls. Glue the two walls without finger joins to the inside of the side walls. Make sure there is no squeeze out on top, as this is going to form the rail for the lid.

Add the top of the rails to the sides and the grip rail to the lid (still missing in the picture above):

![Details](static/samples/CardBox-detail.jpg)


Created with Boxes.py (https://festi.info/boxes.py)
Command line: boxes CardBox --FingerJoint_angle=90.0 --FingerJoint_style=rectangular --FingerJoint_surroundingspaces=2.0 --FingerJoint_edge_width=1.0 --FingerJoint_finger=2.0 --FingerJoint_play=0.0 --FingerJoint_space=2.0 --FingerJoint_width=1.0 --h=56 --cardwidth=52 --cardheight=63 --num=3 --thickness=4 --format=svg --tabs=0.0 --debug=0 --labels=0 --labels=1 --reference=100 --burn=0.1
Url: http://www.festi.info/CardBox?FingerJoint_angle=90.0&amp;FingerJoint_style=rectangular&amp;FingerJoint_surroundingspaces=2.0&amp;FingerJoint_edge_width=1.0&amp;FingerJoint_finger=2.0&amp;FingerJoint_play=0.0&amp;FingerJoint_space=2.0&amp;FingerJoint_width=1.0&amp;h=56&amp;cardwidth=52&amp;cardheight=63&amp;num=3&amp;thickness=4&amp;format=svg&amp;tabs=0.0&amp;debug=0&amp;labels=0&amp;labels=1&amp;reference=100&amp;burn=0.1&amp;render=1
SettingsUrl: http://www.festi.info/CardBox?FingerJoint_angle=90.0&amp;FingerJoint_style=rectangular&amp;FingerJoint_surroundingspaces=2.0&amp;FingerJoint_edge_width=1.0&amp;FingerJoint_finger=2.0&amp;FingerJoint_play=0.0&amp;FingerJoint_space=2.0&amp;FingerJoint_width=1.0&amp;h=56&amp;cardwidth=52&amp;cardheight=63&amp;num=3&amp;thickness=4&amp;format=svg&amp;tabs=0.0&amp;debug=0&amp;labels=0&amp;labels=1&amp;reference=100&amp;burn=0.1
</dc:description>
        <dc:format>image/svg+xml</dc:format>
        <dc:type
           rdf:resource="http://purl.org/dc/dcmitype/StillImage" />
      </cc:Work>
    </rdf:RDF>
  </metadata>
  <g
     id="p-1"
     style="fill:none;stroke-linecap:round;stroke-linejoin:round;">
    <text
       alignment-baseline="hanging"
       font-size="4px"
       style="font-family: sans-serif ; font-weight: normal; font-style: normal; fill: rgb(255,0,0)"
       text-anchor="middle"
       transform="matrix( 1.000 0.000 0.000 1.000 95.700 337.900 )"
       id="text1332">Lid</text>
    <path
       d="M 10.100 373.400 H 19.700 C 19.755 373.400 19.800 373.355 19.800 373.300 V 369.400 C 19.800 369.300 19.700 369.400 19.800 369.400 H 27.600 C 27.700 369.400 27.600 369.300 27.600 369.400 V 373.300 C 27.600 373.355 27.645 373.400 27.700 373.400 H 35.700 C 35.755 373.400 35.800 373.355 35.800 373.300 V 369.400 C 35.800 369.300 35.700 369.400 35.800 369.400 H 43.600 C 43.700 369.400 43.600 369.300 43.600 369.400 V 373.300 C 43.600 373.355 43.645 373.400 43.700 373.400 H 51.700 C 51.755 373.400 51.800 373.355 51.800 373.300 V 369.400 C 51.800 369.300 51.700 369.400 51.800 369.400 H 59.600 C 59.700 369.400 59.600 369.300 59.600 369.400 V 373.300 C 59.600 373.355 59.645 373.400 59.700 373.400 H 67.700 C 67.755 373.400 67.800 373.355 67.800 373.300 V 369.400 C 67.800 369.300 67.700 369.400 67.800 369.400 H 75.600 C 75.700 369.400 75.600 369.300 75.600 369.400 V 373.300 C 75.600 373.355 75.645 373.400 75.700 373.400 H 83.700 C 83.755 373.400 83.800 373.355 83.800 373.300 V 369.400 C 83.800 369.300 83.700 369.400 83.800 369.400 H 91.600 C 91.700 369.400 91.600 369.300 91.600 369.400 V 373.300 C 91.600 373.355 91.645 373.400 91.700 373.400 H 99.700 C 99.755 373.400 99.800 373.355 99.800 373.300 V 369.400 C 99.800 369.300 99.700 369.400 99.800 369.400 H 107.600 C 107.700 369.400 107.600 369.300 107.600 369.400 V 373.300 C 107.600 373.355 107.645 373.400 107.700 373.400 H 115.700 C 115.755 373.400 115.800 373.355 115.800 373.300 V 369.400 C 115.800 369.300 115.700 369.400 115.800 369.400 H 123.600 C 123.700 369.400 123.600 369.300 123.600 369.400 V 373.300 C 123.600 373.355 123.645 373.400 123.700 373.400 H 131.700 C 131.755 373.400 131.800 373.355 131.800 373.300 V 369.400 C 131.800 369.300 131.700 369.400 131.800 369.400 H 139.600 C 139.700 369.400 139.600 369.300 139.600 369.400 V 373.300 C 139.600 373.355 139.645 373.400 139.700 373.400 H 147.700 C 147.755 373.400 147.800 373.355 147.800 373.300 V 369.400 C 147.800 369.300 147.700 369.400 147.800 369.400 H 155.600 C 155.700 369.400 155.600 369.300 155.600 369.400 V 373.300 C 155.600 373.355 155.645 373.400 155.700 373.400 H 163.700 C 163.755 373.400 163.800 373.355 163.800 373.300 V 369.400 C 163.800 369.300 163.700 369.400 163.800 369.400 H 171.600 C 171.700 369.400 171.600 369.300 171.600 369.400 V 373.300 C 171.600 373.355 171.645 373.400 171.700 373.400 H 181.300 C 181.355 373.400 181.400 373.355 181.400 373.300 V 369.300 V 306.300 C 181.400 306.245 181.355 306.200 181.300 306.200 H 10.100 C 10.045 306.200 10.000 306.245 10.000 306.300 V 369.300 V 373.300 C 10.000 373.355 10.045 373.400 10.100 373.400"
       stroke="rgb(0,0,0)"
       stroke-width="0.20"
       id="path1334" />
  </g>
  <g
     id="p-2"
     style="fill:none;stroke-linecap:round;stroke-linejoin:round;">
    <path
       d="M 247.400 353.800 V 357.700 C 247.400 357.800 247.500 357.700 247.400 357.700 H 243.600 C 243.500 357.700 243.600 357.800 243.600 357.700 V 349.900 C 243.600 349.800 243.500 349.900 243.600 349.900 H 247.400 C 247.500 349.900 247.400 349.800 247.400 349.900 V 353.800 Z"
       stroke="rgb(0,0,255)"
       stroke-width="0.20"
       id="path1337" />
    <path
       d="M 247.400 337.800 V 341.700 C 247.400 341.800 247.500 341.700 247.400 341.700 H 243.600 C 243.500 341.700 243.600 341.800 243.600 341.700 V 333.900 C 243.600 333.800 243.500 333.900 243.600 333.900 H 247.400 C 247.500 333.900 247.400 333.800 247.400 333.900 V 337.800 Z"
       stroke="rgb(0,0,255)"
       stroke-width="0.20"
       id="path1339" />
    <path
       d="M 247.400 321.800 V 325.700 C 247.400 325.800 247.500 325.700 247.400 325.700 H 243.600 C 243.500 325.700 243.600 325.800 243.600 325.700 V 317.900 C 243.600 317.800 243.500 317.900 243.600 317.900 H 247.400 C 247.500 317.900 247.400 317.800 247.400 317.900 V 321.800 Z"
       stroke="rgb(0,0,255)"
       stroke-width="0.20"
       id="path1341" />
    <path
       d="M 303.400 353.800 V 357.700 C 303.400 357.800 303.500 357.700 303.400 357.700 H 299.600 C 299.500 357.700 299.600 357.800 299.600 357.700 V 349.900 C 299.600 349.800 299.500 349.900 299.600 349.900 H 303.400 C 303.500 349.900 303.400 349.800 303.400 349.900 V 353.800 Z"
       stroke="rgb(0,0,255)"
       stroke-width="0.20"
       id="path1343" />
    <path
       d="M 303.400 337.800 V 341.700 C 303.400 341.800 303.500 341.700 303.400 341.700 H 299.600 C 299.500 341.700 299.600 341.800 299.600 341.700 V 333.900 C 299.600 333.800 299.500 333.900 299.600 333.900 H 303.400 C 303.500 333.900 303.400 333.800 303.400 333.900 V 337.800 Z"
       stroke="rgb(0,0,255)"
       stroke-width="0.20"
       id="path1345" />
    <path
       d="M 303.400 321.800 V 325.700 C 303.400 325.800 303.500 325.700 303.400 325.700 H 299.600 C 299.500 325.700 299.600 325.800 299.600 325.700 V 317.900 C 299.600 317.800 299.500 317.900 299.600 317.900 H 303.400 C 303.500 317.900 303.400 317.800 303.400 317.900 V 321.800 Z"
       stroke="rgb(0,0,255)"
       stroke-width="0.20"
       id="path1347" />
    <text
       alignment-baseline="hanging"
       font-size="4px"
       style="font-family: sans-serif ; font-weight: normal; font-style: normal; fill: rgb(255,0,0)"
       text-anchor="middle"
       transform="matrix( 1.000 0.000 0.000 1.000 273.500 335.900 )"
       id="text1349">Bottom</text>
    <path
       d="M 187.500 369.400 H 197.400 C 197.500 369.400 197.400 369.300 197.400 369.400 V 373.300 C 197.400 373.355 197.445 373.400 197.500 373.400 H 205.500 C 205.555 373.400 205.600 373.355 205.600 373.300 V 369.400 C 205.600 369.300 205.500 369.400 205.600 369.400 H 213.400 C 213.500 369.400 213.400 369.300 213.400 369.400 V 373.300 C 213.400 373.355 213.445 373.400 213.500 373.400 H 221.500 C 221.555 373.400 221.600 373.355 221.600 373.300 V 369.400 C 221.600 369.300 221.500 369.400 221.600 369.400 H 229.400 C 229.500 369.400 229.400 369.300 229.400 369.400 V 373.300 C 229.400 373.355 229.445 373.400 229.500 373.400 H 237.500 C 237.555 373.400 237.600 373.355 237.600 373.300 V 369.400 C 237.600 369.300 237.500 369.400 237.600 369.400 H 245.400 C 245.500 369.400 245.400 369.300 245.400 369.400 V 373.300 C 245.400 373.355 245.445 373.400 245.500 373.400 H 253.500 C 253.555 373.400 253.600 373.355 253.600 373.300 V 369.400 C 253.600 369.300 253.500 369.400 253.600 369.400 H 261.400 C 261.500 369.400 261.400 369.300 261.400 369.400 V 373.300 C 261.400 373.355 261.445 373.400 261.500 373.400 H 269.500 C 269.555 373.400 269.600 373.355 269.600 373.300 V 369.400 C 269.600 369.300 269.500 369.400 269.600 369.400 H 277.400 C 277.500 369.400 277.400 369.300 277.400 369.400 V 373.300 C 277.400 373.355 277.445 373.400 277.500 373.400 H 285.500 C 285.555 373.400 285.600 373.355 285.600 373.300 V 369.400 C 285.600 369.300 285.500 369.400 285.600 369.400 H 293.400 C 293.500 369.400 293.400 369.300 293.400 369.400 V 373.300 C 293.400 373.355 293.445 373.400 293.500 373.400 H 301.500 C 301.555 373.400 301.600 373.355 301.600 373.300 V 369.400 C 301.600 369.300 301.500 369.400 301.600 369.400 H 309.400 C 309.500 369.400 309.400 369.300 309.400 369.400 V 373.300 C 309.400 373.355 309.445 373.400 309.500 373.400 H 317.500 C 317.555 373.400 317.600 373.355 317.600 373.300 V 369.400 C 317.600 369.300 317.500 369.400 317.600 369.400 H 325.400 C 325.500 369.400 325.400 369.300 325.400 369.400 V 373.300 C 325.400 373.355 325.445 373.400 325.500 373.400 H 333.500 C 333.555 373.400 333.600 373.355 333.600 373.300 V 369.400 C 333.600 369.300 333.500 369.400 333.600 369.400 H 341.400 C 341.500 369.400 341.400 369.300 341.400 369.400 V 373.300 C 341.400 373.355 341.445 373.400 341.500 373.400 H 349.500 C 349.555 373.400 349.600 373.355 349.600 373.300 V 369.400 C 349.600 369.300 349.500 369.400 349.600 369.400 H 359.500 C 359.555 369.400 359.600 369.355 359.600 369.300 V 357.900 C 359.600 357.800 359.500 357.900 359.600 357.900 H 363.500 C 363.555 357.900 363.600 357.855 363.600 357.800 V 349.800 C 363.600 349.745 363.555 349.700 363.500 349.700 H 359.600 C 359.500 349.700 359.600 349.800 359.600 349.700 V 341.900 C 359.600 341.800 359.500 341.900 359.600 341.900 H 363.500 C 363.555 341.900 363.600 341.855 363.600 341.800 V 333.800 C 363.600 333.745 363.555 333.700 363.500 333.700 H 359.600 C 359.500 333.700 359.600 333.800 359.600 333.700 V 325.900 C 359.600 325.800 359.500 325.900 359.600 325.900 H 363.500 C 363.555 325.900 363.600 325.855 363.600 325.800 V 317.800 C 363.600 317.745 363.555 317.700 363.500 317.700 H 359.600 C 359.500 317.700 359.600 317.800 359.600 317.700 V 306.300 C 359.600 306.245 359.555 306.200 359.500 306.200 H 349.600 C 349.500 306.200 349.600 306.300 349.600 306.200 V 302.300 C 349.600 302.245 349.555 302.200 349.500 302.200 H 341.500 C 341.445 302.200 341.400 302.245 341.400 302.300 V 306.200 C 341.400 306.300 341.500 306.200 341.400 306.200 H 333.600 C 333.500 306.200 333.600 306.300 333.600 306.200 V 302.300 C 333.600 302.245 333.555 302.200 333.500 302.200 H 325.500 C 325.445 302.200 325.400 302.245 325.400 302.300 V 306.200 C 325.400 306.300 325.500 306.200 325.400 306.200 H 317.600 C 317.500 306.200 317.600 306.300 317.600 306.200 V 302.300 C 317.600 302.245 317.555 302.200 317.500 302.200 H 309.500 C 309.445 302.200 309.400 302.245 309.400 302.300 V 306.200 C 309.400 306.300 309.500 306.200 309.400 306.200 H 301.600 C 301.500 306.200 301.600 306.300 301.600 306.200 V 302.300 C 301.600 302.245 301.555 302.200 301.500 302.200 H 293.500 C 293.445 302.200 293.400 302.245 293.400 302.300 V 306.200 C 293.400 306.300 293.500 306.200 293.400 306.200 H 285.600 C 285.500 306.200 285.600 306.300 285.600 306.200 V 302.300 C 285.600 302.245 285.555 302.200 285.500 302.200 H 277.500 C 277.445 302.200 277.400 302.245 277.400 302.300 V 306.200 C 277.400 306.300 277.500 306.200 277.400 306.200 H 269.600 C 269.500 306.200 269.600 306.300 269.600 306.200 V 302.300 C 269.600 302.245 269.555 302.200 269.500 302.200 H 261.500 C 261.445 302.200 261.400 302.245 261.400 302.300 V 306.200 C 261.400 306.300 261.500 306.200 261.400 306.200 H 253.600 C 253.500 306.200 253.600 306.300 253.600 306.200 V 302.300 C 253.600 302.245 253.555 302.200 253.500 302.200 H 245.500 C 245.445 302.200 245.400 302.245 245.400 302.300 V 306.200 C 245.400 306.300 245.500 306.200 245.400 306.200 H 237.600 C 237.500 306.200 237.600 306.300 237.600 306.200 V 302.300 C 237.600 302.245 237.555 302.200 237.500 302.200 H 229.500 C 229.445 302.200 229.400 302.245 229.400 302.300 V 306.200 C 229.400 306.300 229.500 306.200 229.400 306.200 H 221.600 C 221.500 306.200 221.600 306.300 221.600 306.200 V 302.300 C 221.600 302.245 221.555 302.200 221.500 302.200 H 213.500 C 213.445 302.200 213.400 302.245 213.400 302.300 V 306.200 C 213.400 306.300 213.500 306.200 213.400 306.200 H 205.600 C 205.500 306.200 205.600 306.300 205.600 306.200 V 302.300 C 205.600 302.245 205.555 302.200 205.500 302.200 H 197.500 C 197.445 302.200 197.400 302.245 197.400 302.300 V 306.200 C 197.400 306.300 197.500 306.200 197.400 306.200 H 187.500 C 187.445 306.200 187.400 306.245 187.400 306.300 V 317.700 C 187.400 317.800 187.500 317.700 187.400 317.700 H 183.500 C 183.445 317.700 183.400 317.745 183.400 317.800 V 325.800 C 183.400 325.855 183.445 325.900 183.500 325.900 H 187.400 C 187.500 325.900 187.400 325.800 187.400 325.900 V 333.700 C 187.400 333.800 187.500 333.700 187.400 333.700 H 183.500 C 183.445 333.700 183.400 333.745 183.400 333.800 V 341.800 C 183.400 341.855 183.445 341.900 183.500 341.900 H 187.400 C 187.500 341.900 187.400 341.800 187.400 341.900 V 349.700 C 187.400 349.800 187.500 349.700 187.400 349.700 H 183.500 C 183.445 349.700 183.400 349.745 183.400 349.800 V 357.800 C 183.400 357.855 183.445 357.900 183.500 357.900 H 187.400 C 187.500 357.900 187.400 357.800 187.400 357.900 V 369.300 C 187.400 369.355 187.445 369.400 187.500 369.400"
       stroke="rgb(0,0,0)"
       stroke-width="0.20"
       id="path1351" />
  </g>
  <g
     id="p-3"
     style="fill:none;stroke-linecap:round;stroke-linejoin:round;">
    <path
       d="M 74.000 284.100 V 288.000 C 74.000 288.100 74.100 288.000 74.000 288.000 H 70.200 C 70.100 288.000 70.200 288.100 70.200 288.000 V 280.200 C 70.200 280.100 70.100 280.200 70.200 280.200 H 74.000 C 74.100 280.200 74.000 280.100 74.000 280.200 V 284.100 Z"
       stroke="rgb(0,0,255)"
       stroke-width="0.20"
       id="path1354" />
    <path
       d="M 74.000 268.100 V 272.000 C 74.000 272.100 74.100 272.000 74.000 272.000 H 70.200 C 70.100 272.000 70.200 272.100 70.200 272.000 V 264.200 C 70.200 264.100 70.100 264.200 70.200 264.200 H 74.000 C 74.100 264.200 74.000 264.100 74.000 264.200 V 268.100 Z"
       stroke="rgb(0,0,255)"
       stroke-width="0.20"
       id="path1356" />
    <path
       d="M 74.000 252.100 V 256.000 C 74.000 256.100 74.100 256.000 74.000 256.000 H 70.200 C 70.100 256.000 70.200 256.100 70.200 256.000 V 248.200 C 70.200 248.100 70.100 248.200 70.200 248.200 H 74.000 C 74.100 248.200 74.000 248.100 74.000 248.200 V 252.100 Z"
       stroke="rgb(0,0,255)"
       stroke-width="0.20"
       id="path1358" />
    <path
       d="M 130.000 284.100 V 288.000 C 130.000 288.100 130.100 288.000 130.000 288.000 H 126.200 C 126.100 288.000 126.200 288.100 126.200 288.000 V 280.200 C 126.200 280.100 126.100 280.200 126.200 280.200 H 130.000 C 130.100 280.200 130.000 280.100 130.000 280.200 V 284.100 Z"
       stroke="rgb(0,0,255)"
       stroke-width="0.20"
       id="path1360" />
    <path
       d="M 130.000 268.100 V 272.000 C 130.000 272.100 130.100 272.000 130.000 272.000 H 126.200 C 126.100 272.000 126.200 272.100 126.200 272.000 V 264.200 C 126.200 264.100 126.100 264.200 126.200 264.200 H 130.000 C 130.100 264.200 130.000 264.100 130.000 264.200 V 268.100 Z"
       stroke="rgb(0,0,255)"
       stroke-width="0.20"
       id="path1362" />
    <path
       d="M 130.000 252.100 V 256.000 C 130.000 256.100 130.100 256.000 130.000 256.000 H 126.200 C 126.100 256.000 126.200 256.100 126.200 256.000 V 248.200 C 126.200 248.100 126.100 248.200 126.200 248.200 H 130.000 C 130.100 248.200 130.000 248.100 130.000 248.200 V 252.100 Z"
       stroke="rgb(0,0,255)"
       stroke-width="0.20"
       id="path1364" />
    <text
       alignment-baseline="hanging"
       font-size="4px"
       style="font-family: sans-serif ; font-weight: normal; font-style: normal; fill: rgb(255,0,0)"
       text-anchor="middle"
       transform="matrix( 1.000 0.000 0.000 1.000 100.100 264.200 )"
       id="text1366">Back</text>
    <path
       d="M 14.100 300.200 H 24.100 C 24.155 300.200 24.200 300.155 24.200 300.100 V 296.200 C 24.200 296.100 24.100 296.200 24.200 296.200 H 32.000 C 32.100 296.200 32.000 296.100 32.000 296.200 V 300.100 C 32.000 300.155 32.045 300.200 32.100 300.200 H 40.100 C 40.155 300.200 40.200 300.155 40.200 300.100 V 296.200 C 40.200 296.100 40.100 296.200 40.200 296.200 H 48.000 C 48.100 296.200 48.000 296.100 48.000 296.200 V 300.100 C 48.000 300.155 48.045 300.200 48.100 300.200 H 56.100 C 56.155 300.200 56.200 300.155 56.200 300.100 V 296.200 C 56.200 296.100 56.100 296.200 56.200 296.200 H 64.000 C 64.100 296.200 64.000 296.100 64.000 296.200 V 300.100 C 64.000 300.155 64.045 300.200 64.100 300.200 H 72.100 C 72.155 300.200 72.200 300.155 72.200 300.100 V 296.200 C 72.200 296.100 72.100 296.200 72.200 296.200 H 80.000 C 80.100 296.200 80.000 296.100 80.000 296.200 V 300.100 C 80.000 300.155 80.045 300.200 80.100 300.200 H 88.100 C 88.155 300.200 88.200 300.155 88.200 300.100 V 296.200 C 88.200 296.100 88.100 296.200 88.200 296.200 H 96.000 C 96.100 296.200 96.000 296.100 96.000 296.200 V 300.100 C 96.000 300.155 96.045 300.200 96.100 300.200 H 104.100 C 104.155 300.200 104.200 300.155 104.200 300.100 V 296.200 C 104.200 296.100 104.100 296.200 104.200 296.200 H 112.000 C 112.100 296.200 112.000 296.100 112.000 296.200 V 300.100 C 112.000 300.155 112.045 300.200 112.100 300.200 H 120.100 C 120.155 300.200 120.200 300.155 120.200 300.100 V 296.200 C 120.200 296.100 120.100 296.200 120.200 296.200 H 128.000 C 128.100 296.200 128.000 296.100 128.000 296.200 V 300.100 C 128.000 300.155 128.045 300.200 128.100 300.200 H 136.100 C 136.155 300.200 136.200 300.155 136.200 300.100 V 296.200 C 136.200 296.100 136.100 296.200 136.200 296.200 H 144.000 C 144.100 296.200 144.000 296.100 144.000 296.200 V 300.100 C 144.000 300.155 144.045 300.200 144.100 300.200 H 152.100 C 152.155 300.200 152.200 300.155 152.200 300.100 V 296.200 C 152.200 296.100 152.100 296.200 152.200 296.200 H 160.000 C 160.100 296.200 160.000 296.100 160.000 296.200 V 300.100 C 160.000 300.155 160.045 300.200 160.100 300.200 H 168.100 C 168.155 300.200 168.200 300.155 168.200 300.100 V 296.200 C 168.200 296.100 168.100 296.200 168.200 296.200 H 176.000 C 176.100 296.200 176.000 296.100 176.000 296.200 V 300.100 C 176.000 300.155 176.045 300.200 176.100 300.200 H 186.100 H 190.100 C 190.155 300.200 190.200 300.155 190.200 300.100 V 296.100 V 286.100 C 190.200 286.045 190.155 286.000 190.100 286.000 H 186.200 C 186.100 286.000 186.200 286.100 186.200 286.000 V 278.200 C 186.200 278.100 186.100 278.200 186.200 278.200 H 190.100 C 190.155 278.200 190.200 278.155 190.200 278.100 V 270.100 C 190.200 270.045 190.155 270.000 190.100 270.000 H 186.200 C 186.100 270.000 186.200 270.100 186.200 270.000 V 262.200 C 186.200 262.100 186.100 262.200 186.200 262.200 H 190.100 C 190.155 262.200 190.200 262.155 190.200 262.100 V 254.100 C 190.200 254.045 190.155 254.000 190.100 254.000 H 186.200 C 186.100 254.000 186.200 254.100 186.200 254.000 V 246.200 C 186.200 246.100 186.100 246.200 186.200 246.200 H 190.100 C 190.155 246.200 190.200 246.155 190.200 246.100 V 236.100 V 232.100 C 190.200 232.045 190.155 232.000 190.100 232.000 H 186.100 H 14.100 H 10.100 C 10.045 232.000 10.000 232.045 10.000 232.100 V 236.100 V 246.100 C 10.000 246.155 10.045 246.200 10.100 246.200 H 14.000 C 14.100 246.200 14.000 246.100 14.000 246.200 V 254.000 C 14.000 254.100 14.100 254.000 14.000 254.000 H 10.100 C 10.045 254.000 10.000 254.045 10.000 254.100 V 262.100 C 10.000 262.155 10.045 262.200 10.100 262.200 H 14.000 C 14.100 262.200 14.000 262.100 14.000 262.200 V 270.000 C 14.000 270.100 14.100 270.000 14.000 270.000 H 10.100 C 10.045 270.000 10.000 270.045 10.000 270.100 V 278.100 C 10.000 278.155 10.045 278.200 10.100 278.200 H 14.000 C 14.100 278.200 14.000 278.100 14.000 278.200 V 286.000 C 14.000 286.100 14.100 286.000 14.000 286.000 H 10.100 C 10.045 286.000 10.000 286.045 10.000 286.100 V 296.100 V 300.100 C 10.000 300.155 10.045 300.200 10.100 300.200 H 14.100"
       stroke="rgb(0,0,0)"
       stroke-width="0.20"
       id="path1368" />
  </g>
  <g
     id="p-4"
     style="fill:none;stroke-linecap:round;stroke-linejoin:round;">
    <path
       d="M 256.200 284.100 V 288.000 C 256.200 288.100 256.300 288.000 256.200 288.000 H 252.400 C 252.300 288.000 252.400 288.100 252.400 288.000 V 280.200 C 252.400 280.100 252.300 280.200 252.400 280.200 H 256.200 C 256.300 280.200 256.200 280.100 256.200 280.200 V 284.100 Z"
       stroke="rgb(0,0,255)"
       stroke-width="0.20"
       id="path1371" />
    <path
       d="M 256.200 268.100 V 272.000 C 256.200 272.100 256.300 272.000 256.200 272.000 H 252.400 C 252.300 272.000 252.400 272.100 252.400 272.000 V 264.200 C 252.400 264.100 252.300 264.200 252.400 264.200 H 256.200 C 256.300 264.200 256.200 264.100 256.200 264.200 V 268.100 Z"
       stroke="rgb(0,0,255)"
       stroke-width="0.20"
       id="path1373" />
    <path
       d="M 256.200 252.100 V 256.000 C 256.200 256.100 256.300 256.000 256.200 256.000 H 252.400 C 252.300 256.000 252.400 256.100 252.400 256.000 V 248.200 C 252.400 248.100 252.300 248.200 252.400 248.200 H 256.200 C 256.300 248.200 256.200 248.100 256.200 248.200 V 252.100 Z"
       stroke="rgb(0,0,255)"
       stroke-width="0.20"
       id="path1375" />
    <path
       d="M 312.200 284.100 V 288.000 C 312.200 288.100 312.300 288.000 312.200 288.000 H 308.400 C 308.300 288.000 308.400 288.100 308.400 288.000 V 280.200 C 308.400 280.100 308.300 280.200 308.400 280.200 H 312.200 C 312.300 280.200 312.200 280.100 312.200 280.200 V 284.100 Z"
       stroke="rgb(0,0,255)"
       stroke-width="0.20"
       id="path1377" />
    <path
       d="M 312.200 268.100 V 272.000 C 312.200 272.100 312.300 272.000 312.200 272.000 H 308.400 C 308.300 272.000 308.400 272.100 308.400 272.000 V 264.200 C 308.400 264.100 308.300 264.200 308.400 264.200 H 312.200 C 312.300 264.200 312.200 264.100 312.200 264.200 V 268.100 Z"
       stroke="rgb(0,0,255)"
       stroke-width="0.20"
       id="path1379" />
    <path
       d="M 312.200 252.100 V 256.000 C 312.200 256.100 312.300 256.000 312.200 256.000 H 308.400 C 308.300 256.000 308.400 256.100 308.400 256.000 V 248.200 C 308.400 248.100 308.300 248.200 308.400 248.200 H 312.200 C 312.300 248.200 312.200 248.100 312.200 248.200 V 252.100 Z"
       stroke="rgb(0,0,255)"
       stroke-width="0.20"
       id="path1381" />
    <text
       alignment-baseline="hanging"
       font-size="4px"
       style="font-family: sans-serif ; font-weight: normal; font-style: normal; fill: rgb(255,0,0)"
       text-anchor="middle"
       transform="matrix( 1.000 0.000 0.000 1.000 282.300 266.200 )"
       id="text1383">Front</text>
    <path
       d="M 196.300 300.200 H 206.300 C 206.355 300.200 206.400 300.155 206.400 300.100 V 296.200 C 206.400 296.100 206.300 296.200 206.400 296.200 H 214.200 C 214.300 296.200 214.200 296.100 214.200 296.200 V 300.100 C 214.200 300.155 214.245 300.200 214.300 300.200 H 222.300 C 222.355 300.200 222.400 300.155 222.400 300.100 V 296.200 C 222.400 296.100 222.300 296.200 222.400 296.200 H 230.200 C 230.300 296.200 230.200 296.100 230.200 296.200 V 300.100 C 230.200 300.155 230.245 300.200 230.300 300.200 H 238.300 C 238.355 300.200 238.400 300.155 238.400 300.100 V 296.200 C 238.400 296.100 238.300 296.200 238.400 296.200 H 246.200 C 246.300 296.200 246.200 296.100 246.200 296.200 V 300.100 C 246.200 300.155 246.245 300.200 246.300 300.200 H 254.300 C 254.355 300.200 254.400 300.155 254.400 300.100 V 296.200 C 254.400 296.100 254.300 296.200 254.400 296.200 H 262.200 C 262.300 296.200 262.200 296.100 262.200 296.200 V 300.100 C 262.200 300.155 262.245 300.200 262.300 300.200 H 270.300 C 270.355 300.200 270.400 300.155 270.400 300.100 V 296.200 C 270.400 296.100 270.300 296.200 270.400 296.200 H 278.200 C 278.300 296.200 278.200 296.100 278.200 296.200 V 300.100 C 278.200 300.155 278.245 300.200 278.300 300.200 H 286.300 C 286.355 300.200 286.400 300.155 286.400 300.100 V 296.200 C 286.400 296.100 286.300 296.200 286.400 296.200 H 294.200 C 294.300 296.200 294.200 296.100 294.200 296.200 V 300.100 C 294.200 300.155 294.245 300.200 294.300 300.200 H 302.300 C 302.355 300.200 302.400 300.155 302.400 300.100 V 296.200 C 302.400 296.100 302.300 296.200 302.400 296.200 H 310.200 C 310.300 296.200 310.200 296.100 310.200 296.200 V 300.100 C 310.200 300.155 310.245 300.200 310.300 300.200 H 318.300 C 318.355 300.200 318.400 300.155 318.400 300.100 V 296.200 C 318.400 296.100 318.300 296.200 318.400 296.200 H 326.200 C 326.300 296.200 326.200 296.100 326.200 296.200 V 300.100 C 326.200 300.155 326.245 300.200 326.300 300.200 H 334.300 C 334.355 300.200 334.400 300.155 334.400 300.100 V 296.200 C 334.400 296.100 334.300 296.200 334.400 296.200 H 342.200 C 342.300 296.200 342.200 296.100 342.200 296.200 V 300.100 C 342.200 300.155 342.245 300.200 342.300 300.200 H 350.300 C 350.355 300.200 350.400 300.155 350.400 300.100 V 296.200 C 350.400 296.100 350.300 296.200 350.400 296.200 H 358.200 C 358.300 296.200 358.200 296.100 358.200 296.200 V 300.100 C 358.200 300.155 358.245 300.200 358.300 300.200 H 368.300 H 372.300 C 372.355 300.200 372.400 300.155 372.400 300.100 V 296.100 V 286.100 C 372.400 286.045 372.355 286.000 372.300 286.000 H 368.400 C 368.300 286.000 368.400 286.100 368.400 286.000 V 278.200 C 368.400 278.100 368.300 278.200 368.400 278.200 H 372.300 C 372.355 278.200 372.400 278.155 372.400 278.100 V 270.100 C 372.400 270.045 372.355 270.000 372.300 270.000 H 368.400 C 368.300 270.000 368.400 270.100 368.400 270.000 V 262.200 C 368.400 262.100 368.300 262.200 368.400 262.200 H 372.300 C 372.355 262.200 372.400 262.155 372.400 262.100 V 254.100 C 372.400 254.045 372.355 254.000 372.300 254.000 H 368.400 C 368.300 254.000 368.400 254.100 368.400 254.000 V 246.200 C 368.400 246.100 368.300 246.200 368.400 246.200 H 372.300 C 372.355 246.200 372.400 246.155 372.400 246.100 V 236.100 C 372.400 236.045 372.355 236.000 372.300 236.000 H 368.300 C 368.245 236.000 368.200 236.045 368.200 236.100 V 240.000 C 368.200 240.100 368.300 240.000 368.200 240.000 H 196.400 C 196.300 240.000 196.400 240.100 196.400 240.000 V 236.100 C 196.400 236.045 196.355 236.000 196.300 236.000 H 192.300 C 192.245 236.000 192.200 236.045 192.200 236.100 V 246.100 C 192.200 246.155 192.245 246.200 192.300 246.200 H 196.200 C 196.300 246.200 196.200 246.100 196.200 246.200 V 254.000 C 196.200 254.100 196.300 254.000 196.200 254.000 H 192.300 C 192.245 254.000 192.200 254.045 192.200 254.100 V 262.100 C 192.200 262.155 192.245 262.200 192.300 262.200 H 196.200 C 196.300 262.200 196.200 262.100 196.200 262.200 V 270.000 C 196.200 270.100 196.300 270.000 196.200 270.000 H 192.300 C 192.245 270.000 192.200 270.045 192.200 270.100 V 278.100 C 192.200 278.155 192.245 278.200 192.300 278.200 H 196.200 C 196.300 278.200 196.200 278.100 196.200 278.200 V 286.000 C 196.200 286.100 196.300 286.000 196.200 286.000 H 192.300 C 192.245 286.000 192.200 286.045 192.200 286.100 V 296.100 V 300.100 C 192.200 300.155 192.245 300.200 192.300 300.200 H 196.300"
       stroke="rgb(0,0,0)"
       stroke-width="0.20"
       id="path1385" />
  </g>
  <g
     id="p-5"
     style="fill:none;stroke-linecap:round;stroke-linejoin:round;">
    <text
       alignment-baseline="hanging"
       font-size="4px"
       style="font-family: sans-serif ; font-weight: normal; font-style: normal; fill: rgb(255,0,0)"
       text-anchor="middle"
       transform="matrix( 1.000 0.000 0.000 1.000 99.700 224.000 )"
       id="text1388">Lid Lip</text>
    <path
       d="M 14.100 226.000 H 23.600 C 23.700 226.000 23.600 225.900 23.600 226.000 V 229.900 C 23.600 229.955 23.645 230.000 23.700 230.000 H 31.700 C 31.755 230.000 31.800 229.955 31.800 229.900 V 226.000 C 31.800 225.900 31.700 226.000 31.800 226.000 H 39.600 C 39.700 226.000 39.600 225.900 39.600 226.000 V 229.900 C 39.600 229.955 39.645 230.000 39.700 230.000 H 47.700 C 47.755 230.000 47.800 229.955 47.800 229.900 V 226.000 C 47.800 225.900 47.700 226.000 47.800 226.000 H 55.600 C 55.700 226.000 55.600 225.900 55.600 226.000 V 229.900 C 55.600 229.955 55.645 230.000 55.700 230.000 H 63.700 C 63.755 230.000 63.800 229.955 63.800 229.900 V 226.000 C 63.800 225.900 63.700 226.000 63.800 226.000 H 71.600 C 71.700 226.000 71.600 225.900 71.600 226.000 V 229.900 C 71.600 229.955 71.645 230.000 71.700 230.000 H 79.700 C 79.755 230.000 79.800 229.955 79.800 229.900 V 226.000 C 79.800 225.900 79.700 226.000 79.800 226.000 H 87.600 C 87.700 226.000 87.600 225.900 87.600 226.000 V 229.900 C 87.600 229.955 87.645 230.000 87.700 230.000 H 95.700 C 95.755 230.000 95.800 229.955 95.800 229.900 V 226.000 C 95.800 225.900 95.700 226.000 95.800 226.000 H 103.600 C 103.700 226.000 103.600 225.900 103.600 226.000 V 229.900 C 103.600 229.955 103.645 230.000 103.700 230.000 H 111.700 C 111.755 230.000 111.800 229.955 111.800 229.900 V 226.000 C 111.800 225.900 111.700 226.000 111.800 226.000 H 119.600 C 119.700 226.000 119.600 225.900 119.600 226.000 V 229.900 C 119.600 229.955 119.645 230.000 119.700 230.000 H 127.700 C 127.755 230.000 127.800 229.955 127.800 229.900 V 226.000 C 127.800 225.900 127.700 226.000 127.800 226.000 H 135.600 C 135.700 226.000 135.600 225.900 135.600 226.000 V 229.900 C 135.600 229.955 135.645 230.000 135.700 230.000 H 143.700 C 143.755 230.000 143.800 229.955 143.800 229.900 V 226.000 C 143.800 225.900 143.700 226.000 143.800 226.000 H 151.600 C 151.700 226.000 151.600 225.900 151.600 226.000 V 229.900 C 151.600 229.955 151.645 230.000 151.700 230.000 H 159.700 C 159.755 230.000 159.800 229.955 159.800 229.900 V 226.000 C 159.800 225.900 159.700 226.000 159.800 226.000 H 167.600 C 167.700 226.000 167.600 225.900 167.600 226.000 V 229.900 C 167.600 229.955 167.645 230.000 167.700 230.000 H 175.700 C 175.755 230.000 175.800 229.955 175.800 229.900 V 226.000 C 175.800 225.900 175.700 226.000 175.800 226.000 H 185.300 H 189.300 C 189.355 226.000 189.400 225.955 189.400 225.900 V 221.900 C 189.400 221.845 189.355 221.800 189.300 221.800 H 185.300 H 14.100 H 10.100 C 10.045 221.800 10.000 221.845 10.000 221.900 V 225.900 C 10.000 225.955 10.045 226.000 10.100 226.000 H 14.100"
       stroke="rgb(0,0,0)"
       stroke-width="0.20"
       id="path1390" />
  </g>
  <g
     id="p-6"
     style="fill:none;stroke-linecap:round;stroke-linejoin:round;">
    <text
       alignment-baseline="hanging"
       font-size="4px"
       style="font-family: sans-serif ; font-weight: normal; font-style: normal; fill: rgb(255,0,0)"
       text-anchor="middle"
       transform="matrix( 1.000 0.000 0.000 1.000 45.600 183.800 )"
       id="text1393">Outer Side Left</text>
    <path
       d="M 14.100 219.800 H 25.600 C 25.655 219.800 25.700 219.755 25.700 219.700 V 215.800 C 25.700 215.700 25.600 215.800 25.700 215.800 H 33.500 C 33.600 215.800 33.500 215.700 33.500 215.800 V 219.700 C 33.500 219.755 33.545 219.800 33.600 219.800 H 41.600 C 41.655 219.800 41.700 219.755 41.700 219.700 V 215.800 C 41.700 215.700 41.600 215.800 41.700 215.800 H 49.500 C 49.600 215.800 49.500 215.700 49.500 215.800 V 219.700 C 49.500 219.755 49.545 219.800 49.600 219.800 H 57.600 C 57.655 219.800 57.700 219.755 57.700 219.700 V 215.800 C 57.700 215.700 57.600 215.800 57.700 215.800 H 65.500 C 65.600 215.800 65.500 215.700 65.500 215.800 V 219.700 C 65.500 219.755 65.545 219.800 65.600 219.800 H 77.100 C 77.155 219.800 77.200 219.755 77.200 219.700 V 215.700 V 205.800 C 77.200 205.700 77.100 205.800 77.200 205.800 H 81.100 C 81.155 205.800 81.200 205.755 81.200 205.700 V 197.700 C 81.200 197.645 81.155 197.600 81.100 197.600 H 77.200 C 77.100 197.600 77.200 197.700 77.200 197.600 V 189.800 C 77.200 189.700 77.100 189.800 77.200 189.800 H 81.100 C 81.155 189.800 81.200 189.755 81.200 189.700 V 181.700 C 81.200 181.645 81.155 181.600 81.100 181.600 H 77.200 C 77.100 181.600 77.200 181.700 77.200 181.600 V 173.800 C 77.200 173.700 77.100 173.800 77.200 173.800 H 81.100 C 81.155 173.800 81.200 173.755 81.200 173.700 V 165.700 C 81.200 165.645 81.155 165.600 81.100 165.600 H 77.200 C 77.100 165.600 77.200 165.700 77.200 165.600 V 155.700 V 151.700 C 77.200 151.645 77.155 151.600 77.100 151.600 H 65.600 C 65.545 151.600 65.500 151.645 65.500 151.700 V 155.600 C 65.500 155.700 65.600 155.600 65.500 155.600 H 57.700 C 57.600 155.600 57.700 155.700 57.700 155.600 V 151.700 C 57.700 151.645 57.655 151.600 57.600 151.600 H 49.600 C 49.545 151.600 49.500 151.645 49.500 151.700 V 155.600 C 49.500 155.700 49.600 155.600 49.500 155.600 H 41.700 C 41.600 155.600 41.700 155.700 41.700 155.600 V 151.700 C 41.700 151.645 41.655 151.600 41.600 151.600 H 33.600 C 33.545 151.600 33.500 151.645 33.500 151.700 V 155.600 C 33.500 155.700 33.600 155.600 33.500 155.600 H 25.700 C 25.600 155.600 25.700 155.700 25.700 155.600 V 151.700 C 25.700 151.645 25.655 151.600 25.600 151.600 H 14.100 C 14.045 151.600 14.000 151.645 14.000 151.700 V 155.700 V 165.600 C 14.000 165.700 14.100 165.600 14.000 165.600 H 10.100 C 10.045 165.600 10.000 165.645 10.000 165.700 V 173.700 C 10.000 173.755 10.045 173.800 10.100 173.800 H 14.000 C 14.100 173.800 14.000 173.700 14.000 173.800 V 181.600 C 14.000 181.700 14.100 181.600 14.000 181.600 H 10.100 C 10.045 181.600 10.000 181.645 10.000 181.700 V 189.700 C 10.000 189.755 10.045 189.800 10.100 189.800 H 14.000 C 14.100 189.800 14.000 189.700 14.000 189.800 V 197.600 C 14.000 197.700 14.100 197.600 14.000 197.600 H 10.100 C 10.045 197.600 10.000 197.645 10.000 197.700 V 205.700 C 10.000 205.755 10.045 205.800 10.100 205.800 H 14.000 C 14.100 205.800 14.000 205.700 14.000 205.800 V 215.700 V 219.700 C 14.000 219.755 14.045 219.800 14.100 219.800"
       stroke="rgb(0,0,0)"
       stroke-width="0.20"
       id="path1395" />
  </g>
  <g
     id="p-7"
     style="fill:none;stroke-linecap:round;stroke-linejoin:round;">
    <text
       alignment-baseline="hanging"
       font-size="4px"
       style="font-family: sans-serif ; font-weight: normal; font-style: normal; fill: rgb(255,0,0)"
       text-anchor="middle"
       transform="matrix( 1.000 0.000 0.000 1.000 118.800 183.800 )"
       id="text1398">Outer Side Right</text>
    <path
       d="M 87.300 219.800 H 98.800 C 98.855 219.800 98.900 219.755 98.900 219.700 V 215.800 C 98.900 215.700 98.800 215.800 98.900 215.800 H 106.700 C 106.800 215.800 106.700 215.700 106.700 215.800 V 219.700 C 106.700 219.755 106.745 219.800 106.800 219.800 H 114.800 C 114.855 219.800 114.900 219.755 114.900 219.700 V 215.800 C 114.900 215.700 114.800 215.800 114.900 215.800 H 122.700 C 122.800 215.800 122.700 215.700 122.700 215.800 V 219.700 C 122.700 219.755 122.745 219.800 122.800 219.800 H 130.800 C 130.855 219.800 130.900 219.755 130.900 219.700 V 215.800 C 130.900 215.700 130.800 215.800 130.900 215.800 H 138.700 C 138.800 215.800 138.700 215.700 138.700 215.800 V 219.700 C 138.700 219.755 138.745 219.800 138.800 219.800 H 150.300 C 150.355 219.800 150.400 219.755 150.400 219.700 V 215.700 V 205.800 C 150.400 205.700 150.300 205.800 150.400 205.800 H 154.300 C 154.355 205.800 154.400 205.755 154.400 205.700 V 197.700 C 154.400 197.645 154.355 197.600 154.300 197.600 H 150.400 C 150.300 197.600 150.400 197.700 150.400 197.600 V 189.800 C 150.400 189.700 150.300 189.800 150.400 189.800 H 154.300 C 154.355 189.800 154.400 189.755 154.400 189.700 V 181.700 C 154.400 181.645 154.355 181.600 154.300 181.600 H 150.400 C 150.300 181.600 150.400 181.700 150.400 181.600 V 173.800 C 150.400 173.700 150.300 173.800 150.400 173.800 H 154.300 C 154.355 173.800 154.400 173.755 154.400 173.700 V 165.700 C 154.400 165.645 154.355 165.600 154.300 165.600 H 150.400 C 150.300 165.600 150.400 165.700 150.400 165.600 V 155.700 V 151.700 C 150.400 151.645 150.355 151.600 150.300 151.600 H 138.800 C 138.745 151.600 138.700 151.645 138.700 151.700 V 155.600 C 138.700 155.700 138.800 155.600 138.700 155.600 H 130.900 C 130.800 155.600 130.900 155.700 130.900 155.600 V 151.700 C 130.900 151.645 130.855 151.600 130.800 151.600 H 122.800 C 122.745 151.600 122.700 151.645 122.700 151.700 V 155.600 C 122.700 155.700 122.800 155.600 122.700 155.600 H 114.900 C 114.800 155.600 114.900 155.700 114.900 155.600 V 151.700 C 114.900 151.645 114.855 151.600 114.800 151.600 H 106.800 C 106.745 151.600 106.700 151.645 106.700 151.700 V 155.600 C 106.700 155.700 106.800 155.600 106.700 155.600 H 98.900 C 98.800 155.600 98.900 155.700 98.900 155.600 V 151.700 C 98.900 151.645 98.855 151.600 98.800 151.600 H 87.300 C 87.245 151.600 87.200 151.645 87.200 151.700 V 155.700 V 165.600 C 87.200 165.700 87.300 165.600 87.200 165.600 H 83.300 C 83.245 165.600 83.200 165.645 83.200 165.700 V 173.700 C 83.200 173.755 83.245 173.800 83.300 173.800 H 87.200 C 87.300 173.800 87.200 173.700 87.200 173.800 V 181.600 C 87.200 181.700 87.300 181.600 87.200 181.600 H 83.300 C 83.245 181.600 83.200 181.645 83.200 181.700 V 189.700 C 83.200 189.755 83.245 189.800 83.300 189.800 H 87.200 C 87.300 189.800 87.200 189.700 87.200 189.800 V 197.600 C 87.200 197.700 87.300 197.600 87.200 197.600 H 83.300 C 83.245 197.600 83.200 197.645 83.200 197.700 V 205.700 C 83.200 205.755 83.245 205.800 83.300 205.800 H 87.200 C 87.300 205.800 87.200 205.700 87.200 205.800 V 215.700 V 219.700 C 87.200 219.755 87.245 219.800 87.300 219.800"
       stroke="rgb(0,0,0)"
       stroke-width="0.20"
       id="path1400" />
  </g>
  <g
     id="p-8"
     style="fill:none;stroke-linecap:round;stroke-linejoin:round;">
    <text
       alignment-baseline="hanging"
       font-size="4px"
       style="font-family: sans-serif ; font-weight: normal; font-style: normal; fill: rgb(255,0,0)"
       text-anchor="middle"
       transform="matrix( 1.000 0.000 0.000 1.000 41.600 119.600 )"
       id="text1403">Inner Side Left</text>
    <path
       d="m 10.1,149.6 h 21.5 c 0.055,0 0.1,-0.045 0.1,-0.1 h 19.8 c 0,0.055 0.045,0.1 0.1,0.1 h 21.5 c 0.055,0 0.1,-0.045 0.1,-0.1 v -56 c 0,-0.055 -0.045,-0.1 -0.1,-0.1 h -63 c -0.055,0 -0.1,0.045 -0.1,0.1 v 56 c 0,0.055 0.045,0.1 0.1,0.1"
       id="path1405"
       inkscape:connector-curvature="0"
       style="stroke:#000000;stroke-width:0.2"
       sodipodi:nodetypes="csccssssssssc" />
  </g>
  <g
     id="p-9"
     style="fill:none;stroke-linecap:round;stroke-linejoin:round;">
    <text
       alignment-baseline="hanging"
       font-size="4px"
       style="font-family: sans-serif ; font-weight: normal; font-style: normal; fill: rgb(255,0,0)"
       text-anchor="middle"
       transform="matrix( 1.000 0.000 0.000 1.000 106.800 119.600 )"
       id="text1408">Inner Side Right</text>
    <path
       d="m 75.3,149.6 h 21.5 c 0.055,0 0.1,-0.045 0.1,-0.1 h 19.8 c 0,0.055 0.045,0.1 0.1,0.1 h 21.5 c 0.055,0 0.1,-0.045 0.1,-0.1 v -56 c 0,-0.055 -0.045,-0.1 -0.1,-0.1 h -63 c -0.055,0 -0.1,0.045 -0.1,0.1 v 56 c 0,0.055 0.045,0.1 0.1,0.1"
       id="path1410"
       inkscape:connector-curvature="0"
       style="stroke:#000000;stroke-width:0.2"
       sodipodi:nodetypes="csccssssssssc" />
  </g>
  <g
     id="p-10"
     style="fill:none;stroke-linecap:round;stroke-linejoin:round;">
    <text
       alignment-baseline="hanging"
       font-size="4px"
       style="font-family: sans-serif ; font-weight: normal; font-style: normal; fill: rgb(255,0,0)"
       text-anchor="middle"
       transform="matrix( 1.000 0.000 0.000 1.000 41.600 85.400 )"
       id="text1413">Lip Left</text>
    <path
       d="M 10.100 91.400 H 73.100 C 73.155 91.400 73.200 91.355 73.200 91.300 V 87.300 C 73.200 87.245 73.155 87.200 73.100 87.200 H 61.700 C 61.600 87.200 61.700 87.300 61.700 87.200 V 83.300 C 61.700 83.245 61.655 83.200 61.600 83.200 H 53.600 C 53.545 83.200 53.500 83.245 53.500 83.300 V 87.200 C 53.500 87.300 53.600 87.200 53.500 87.200 H 45.700 C 45.600 87.200 45.700 87.300 45.700 87.200 V 83.300 C 45.700 83.245 45.655 83.200 45.600 83.200 H 37.600 C 37.545 83.200 37.500 83.245 37.500 83.300 V 87.200 C 37.500 87.300 37.600 87.200 37.500 87.200 H 29.700 C 29.600 87.200 29.700 87.300 29.700 87.200 V 83.300 C 29.700 83.245 29.655 83.200 29.600 83.200 H 21.600 C 21.545 83.200 21.500 83.245 21.500 83.300 V 87.200 C 21.500 87.300 21.600 87.200 21.500 87.200 H 10.100 C 10.045 87.200 10.000 87.245 10.000 87.300 V 91.300 C 10.000 91.355 10.045 91.400 10.100 91.400"
       stroke="rgb(0,0,0)"
       stroke-width="0.20"
       id="path1415" />
  </g>
  <g
     id="p-11"
     style="fill:none;stroke-linecap:round;stroke-linejoin:round;">
    <text
       alignment-baseline="hanging"
       font-size="4px"
       style="font-family: sans-serif ; font-weight: normal; font-style: normal; fill: rgb(255,0,0)"
       text-anchor="middle"
       transform="matrix( 1.000 0.000 0.000 1.000 106.800 85.400 )"
       id="text1418">Lip Right</text>
    <path
       d="M 75.300 87.400 H 86.700 C 86.800 87.400 86.700 87.300 86.700 87.400 V 91.300 C 86.700 91.355 86.745 91.400 86.800 91.400 H 94.800 C 94.855 91.400 94.900 91.355 94.900 91.300 V 87.400 C 94.900 87.300 94.800 87.400 94.900 87.400 H 102.700 C 102.800 87.400 102.700 87.300 102.700 87.400 V 91.300 C 102.700 91.355 102.745 91.400 102.800 91.400 H 110.800 C 110.855 91.400 110.900 91.355 110.900 91.300 V 87.400 C 110.900 87.300 110.800 87.400 110.900 87.400 H 118.700 C 118.800 87.400 118.700 87.300 118.700 87.400 V 91.300 C 118.700 91.355 118.745 91.400 118.800 91.400 H 126.800 C 126.855 91.400 126.900 91.355 126.900 91.300 V 87.400 C 126.900 87.300 126.800 87.400 126.900 87.400 H 138.300 C 138.355 87.400 138.400 87.355 138.400 87.300 V 83.300 C 138.400 83.245 138.355 83.200 138.300 83.200 H 75.300 C 75.245 83.200 75.200 83.245 75.200 83.300 V 87.300 C 75.200 87.355 75.245 87.400 75.300 87.400"
       stroke="rgb(0,0,0)"
       stroke-width="0.20"
       id="path1420" />
  </g>
  <g
     id="p-12"
     style="fill:none;stroke-linecap:round;stroke-linejoin:round;">
    <text
       alignment-baseline="hanging"
       font-size="4px"
       style="font-family: sans-serif ; font-weight: normal; font-style: normal; fill: rgb(255,0,0)"
       text-anchor="middle"
       transform="matrix( 1.000 0.000 0.000 1.000 40.100 43.700 )"
       id="text1423">Divider</text>
    <path
       d="M 14.1,77.2 H 22 c 0.1,0 0,-0.1 0,0 v 3.9 c 0,0.055 0.045,0.1 0.1,0.1 h 8 c 0.055,0 0.1,-0.045 0.1,-0.1 v -3.9 c 0,-0.1 -0.1,0 0,0 H 38 c 0.1,0 0,-0.1 0,0 v 3.9 c 0,0.055 0.045,0.1 0.1,0.1 h 8 c 0.055,0 0.1,-0.045 0.1,-0.1 v -3.9 c 0,-0.1 -0.1,0 0,0 H 54 c 0.1,0 0,-0.1 0,0 v 3.9 c 0,0.055 0.045,0.1 0.1,0.1 h 8 c 0.055,0 0.1,-0.045 0.1,-0.1 v -3.9 c 0,-0.1 -0.1,0 0,0 h 7.9 c 0.055,0 0.1,-0.045 0.1,-0.1 V 55.6 c 0,-0.055 -0.045,-0.1 -0.1,-0.1 V 35.7 c 0.055,0 0.1,-0.045 0.1,-0.1 V 14.1 C 70.2,14.045 70.155,14 70.1,14 h -7.9 c -0.1,0 0,0.1 0,0 V 10.1 C 62.2,10.045 62.155,10 62.1,10 h -8 C 54.045,10 54,10.045 54,10.1 V 14 c 0,0.1 0.1,0 0,0 h -7.8 c -0.1,0 0,0.1 0,0 V 10.1 C 46.2,10.045 46.155,10 46.1,10 h -8 C 38.045,10 38,10.045 38,10.1 V 14 c 0,0.1 0.1,0 0,0 h -7.8 c -0.1,0 0,0.1 0,0 V 10.1 C 30.2,10.045 30.155,10 30.1,10 h -8 C 22.045,10 22,10.045 22,10.1 V 14 c 0,0.1 0.1,0 0,0 H 14.1 C 14.045,14 14,14.045 14,14.1 v 11.4 c 0,0.1 0.1,0 0,0 h -3.9 c -0.055,0 -0.1,0.045 -0.1,0.1 v 8 c 0,0.055 0.045,0.1 0.1,0.1 H 14 c 0.1,0 0,-0.1 0,0 v 7.8 c 0,0.1 0.1,0 0,0 h -3.9 c -0.055,0 -0.1,0.045 -0.1,0.1 v 8 c 0,0.055 0.045,0.1 0.1,0.1 H 14 c 0.1,0 0,-0.1 0,0 v 7.8 c 0,0.1 0.1,0 0,0 h -3.9 c -0.055,0 -0.1,0.045 -0.1,0.1 v 8 c 0,0.055 0.045,0.1 0.1,0.1 H 14 c 0.1,0 0,-0.1 0,0 v 11.4 c 0,0.055 0.045,0.1 0.1,0.1"
       id="path1425"
       inkscape:connector-curvature="0"
       style="stroke:#000000;stroke-width:0.2"
       sodipodi:nodetypes="csssssssssssssssssssssssssssccssssssssssssssssssssssssssssssssssssssssssssssssssssssc" />
  </g>
  <g
     id="p-13"
     style="fill:none;stroke-linecap:round;stroke-linejoin:round;">
    <text
       alignment-baseline="hanging"
       font-size="4px"
       style="font-family: sans-serif ; font-weight: normal; font-style: normal; fill: rgb(255,0,0)"
       text-anchor="middle"
       transform="matrix( 1.000 0.000 0.000 1.000 102.300 43.700 )"
       id="text1428">Divider</text>
    <path
       d="m 76.3,77.2 h 7.9 c 0.1,0 0,-0.1 0,0 v 3.9 c 0,0.055 0.045,0.1 0.1,0.1 h 8 c 0.055,0 0.1,-0.045 0.1,-0.1 v -3.9 c 0,-0.1 -0.1,0 0,0 h 7.8 c 0.1,0 0,-0.1 0,0 v 3.9 c 0,0.055 0.045,0.1 0.1,0.1 h 8 c 0.055,0 0.1,-0.045 0.1,-0.1 v -3.9 c 0,-0.1 -0.1,0 0,0 h 7.8 c 0.1,0 0,-0.1 0,0 v 3.9 c 0,0.055 0.045,0.1 0.1,0.1 h 8 c 0.055,0 0.1,-0.045 0.1,-0.1 v -3.9 c 0,-0.1 -0.1,0 0,0 h 7.9 c 0.055,0 0.1,-0.045 0.1,-0.1 V 55.6 c 0,-0.055 -0.045,-0.1 -0.1,-0.1 V 35.7 c 0.055,0 0.1,-0.045 0.1,-0.1 V 14.1 c 0,-0.055 -0.045,-0.1 -0.1,-0.1 h -7.9 c -0.1,0 0,0.1 0,0 v -3.9 c 0,-0.055 -0.045,-0.1 -0.1,-0.1 h -8 c -0.055,0 -0.1,0.045 -0.1,0.1 V 14 c 0,0.1 0.1,0 0,0 h -7.8 c -0.1,0 0,0.1 0,0 v -3.9 c 0,-0.055 -0.045,-0.1 -0.1,-0.1 h -8 c -0.055,0 -0.1,0.045 -0.1,0.1 V 14 c 0,0.1 0.1,0 0,0 h -7.8 c -0.1,0 0,0.1 0,0 V 10.1 C 92.4,10.045 92.355,10 92.3,10 h -8 c -0.055,0 -0.1,0.045 -0.1,0.1 V 14 c 0,0.1 0.1,0 0,0 h -7.9 c -0.055,0 -0.1,0.045 -0.1,0.1 v 11.4 c 0,0.1 0.1,0 0,0 h -3.9 c -0.055,0 -0.1,0.045 -0.1,0.1 v 8 c 0,0.055 0.045,0.1 0.1,0.1 h 3.9 c 0.1,0 0,-0.1 0,0 v 7.8 c 0,0.1 0.1,0 0,0 h -3.9 c -0.055,0 -0.1,0.045 -0.1,0.1 v 8 c 0,0.055 0.045,0.1 0.1,0.1 h 3.9 c 0.1,0 0,-0.1 0,0 v 7.8 c 0,0.1 0.1,0 0,0 h -3.9 c -0.055,0 -0.1,0.045 -0.1,0.1 v 8 c 0,0.055 0.045,0.1 0.1,0.1 h 3.9 c 0.1,0 0,-0.1 0,0 v 11.4 c 0,0.055 0.045,0.1 0.1,0.1"
       id="path1430"
       inkscape:connector-curvature="0"
       style="stroke:#000000;stroke-width:0.2"
       sodipodi:nodetypes="csssssssssssssssssssssssssssccssssssssssssssssssssssssssssssssssssssssssssssssssssssc" />
  </g>
  <text
     xml:space="preserve"
     style="font-style:normal;font-weight:normal;font-size:10.58333397px;line-height:1.25;font-family:sans-serif;letter-spacing:0px;word-spacing:0px;fill:#000000;fill-opacity:1;stroke:none;stroke-width:0.26458335"
     x="148.91711"
     y="28.126888"
     id="text1984"><tspan
       sodipodi:role="line"
       id="tspan1982"
       x="148.91711"
       y="28.126888"
       style="stroke-width:0.26458335">https://www.festi.info/boxes.py/CardBox?FingerJoint_angle=90.0&amp;FingerJoint_style=rectangular&amp;FingerJoint_surroundingspaces=2.0&amp;FingerJoint_edge_width=1.0&amp;FingerJoint_finger=2.0&amp;FingerJoint_play=0.0&amp;FingerJoint_space=2.0&amp;FingerJoint_width=1.0&amp;h=56&amp;cardwidth=52&amp;cardheight=63&amp;num=3&amp;thickness=4&amp;format=svg&amp;tabs=0.0&amp;debug=0&amp;labels=0&amp;labels=1&amp;reference=100&amp;burn=0.1&amp;render=0</tspan></text>
</svg>
